<?xml version="1.0" encoding="us-ascii" standalone="no"?><svg xmlns="http://www.w3.org/2000/svg" xmlns:xlink="http://www.w3.org/1999/xlink" contentStyleType="text/css" height="1057px" preserveAspectRatio="none" style="width:1099px;height:1057px;background:#FFFFFF;" version="1.1" viewBox="0 0 1099 1057" width="1099px" zoomAndPan="magnify"><defs/><g><line style="stroke:#181818;stroke-width:0.5;stroke-dasharray:5.0,5.0;" x1="54" x2="54" y1="39.0679" y2="1019.1304"/><line style="stroke:#181818;stroke-width:0.5;stroke-dasharray:5.0,5.0;" x1="169" x2="169" y1="39.0679" y2="1019.1304"/><line style="stroke:#181818;stroke-width:0.5;stroke-dasharray:5.0,5.0;" x1="640.5" x2="640.5" y1="39.0679" y2="1019.1304"/><line style="stroke:#181818;stroke-width:0.5;stroke-dasharray:5.0,5.0;" x1="918.5" x2="918.5" y1="39.0679" y2="1019.1304"/><rect fill="#E2E2F0" height="33.0679" rx="2.5" ry="2.5" style="stroke:#181818;stroke-width:0.5;" width="99" x="5" y="5"/><text fill="#000000" font-family="sans-serif" font-size="14" lengthAdjust="spacing" textLength="85" x="12" y="26.9659">BDM_control</text><rect fill="#E2E2F0" height="33.0679" rx="2.5" ry="2.5" style="stroke:#181818;stroke-width:0.5;" width="99" x="5" y="1018.1304"/><text fill="#000000" font-family="sans-serif" font-size="14" lengthAdjust="spacing" textLength="85" x="12" y="1040.0963">BDM_control</text><rect fill="#E2E2F0" height="33.0679" rx="2.5" ry="2.5" style="stroke:#181818;stroke-width:0.5;" width="110" x="114" y="5"/><text fill="#000000" font-family="sans-serif" font-size="14" lengthAdjust="spacing" textLength="96" x="121" y="26.9659">BDM_dispatch</text><rect fill="#E2E2F0" height="33.0679" rx="2.5" ry="2.5" style="stroke:#181818;stroke-width:0.5;" width="110" x="114" y="1018.1304"/><text fill="#000000" font-family="sans-serif" font-size="14" lengthAdjust="spacing" textLength="96" x="121" y="1040.0963">BDM_dispatch</text><rect fill="#E2E2F0" height="33.0679" rx="2.5" ry="2.5" style="stroke:#181818;stroke-width:0.5;" width="60" x="610.5" y="5"/><text fill="#000000" font-family="sans-serif" font-size="14" lengthAdjust="spacing" textLength="46" x="617.5" y="26.9659">uD3TN</text><rect fill="#E2E2F0" height="33.0679" rx="2.5" ry="2.5" style="stroke:#181818;stroke-width:0.5;" width="60" x="610.5" y="1018.1304"/><text fill="#000000" font-family="sans-serif" font-size="14" lengthAdjust="spacing" textLength="46" x="617.5" y="1040.0963">uD3TN</text><rect fill="#E2E2F0" height="33.0679" rx="2.5" ry="2.5" style="stroke:#181818;stroke-width:0.5;" width="66" x="885.5" y="5"/><text fill="#000000" font-family="sans-serif" font-size="14" lengthAdjust="spacing" textLength="52" x="892.5" y="26.9659">Storage</text><rect fill="#E2E2F0" height="33.0679" rx="2.5" ry="2.5" style="stroke:#181818;stroke-width:0.5;" width="66" x="885.5" y="1018.1304"/><text fill="#000000" font-family="sans-serif" font-size="14" lengthAdjust="spacing" textLength="52" x="892.5" y="1040.0963">Storage</text><polygon fill="#181818" points="628.5,68.7739,638.5,72.7739,628.5,76.7739,632.5,72.7739" style="stroke:#181818;stroke-width:1.0;"/><line style="stroke:#181818;stroke-width:1.0;" x1="54.5" x2="634.5" y1="72.7739" y2="72.7739"/><text fill="#000000" font-family="sans-serif" font-size="13" lengthAdjust="spacing" textLength="48" x="61.5" y="66.9649">connect</text><polygon fill="#181818" points="65.5,100.4799,55.5,104.4799,65.5,108.4799,61.5,104.4799" style="stroke:#181818;stroke-width:1.0;"/><line style="stroke:#181818;stroke-width:1.0;" x1="59.5" x2="639.5" y1="104.4799" y2="104.4799"/><text fill="#000000" font-family="sans-serif" font-size="13" lengthAdjust="spacing" textLength="169" x="71.5" y="98.6709">Welcome(node_id = 'ipn:1.0')</text><polygon fill="#181818" points="628.5,132.186,638.5,136.186,628.5,140.186,632.5,136.186" style="stroke:#181818;stroke-width:1.0;"/><line style="stroke:#181818;stroke-width:1.0;" x1="54.5" x2="634.5" y1="136.186" y2="136.186"/><text fill="#000000" font-family="sans-serif" font-size="13" lengthAdjust="spacing" textLength="413" x="61.5" y="130.377">Configure(is_subscriber = false, auth_type = FIB_CONTROL, secret = ...)</text><line style="stroke:#181818;stroke-width:1.0;" x1="640.5" x2="682.5" y1="167.892" y2="167.892"/><line style="stroke:#181818;stroke-width:1.0;" x1="682.5" x2="682.5" y1="167.892" y2="180.892"/><line style="stroke:#181818;stroke-width:1.0;" x1="641.5" x2="682.5" y1="180.892" y2="180.892"/><polygon fill="#181818" points="651.5,176.892,641.5,180.892,651.5,184.892,647.5,180.892" style="stroke:#181818;stroke-width:1.0;"/><text fill="#000000" font-family="sans-serif" font-size="13" lengthAdjust="spacing" textLength="73" x="647.5" y="162.083">check secret</text><polygon fill="#181818" points="65.5,208.598,55.5,212.598,65.5,216.598,61.5,212.598" style="stroke:#181818;stroke-width:1.0;"/><line style="stroke:#181818;stroke-width:1.0;" x1="59.5" x2="639.5" y1="212.598" y2="212.598"/><text fill="#000000" font-family="sans-serif" font-size="13" lengthAdjust="spacing" textLength="24" x="71.5" y="206.789">ACK</text><polygon fill="#181818" points="628.5,240.304,638.5,244.304,628.5,248.304,632.5,244.304" style="stroke:#181818;stroke-width:1.0;"/><line style="stroke:#181818;stroke-width:1.0;" x1="54.5" x2="634.5" y1="244.304" y2="244.304"/><text fill="#000000" font-family="sans-serif" font-size="13" lengthAdjust="spacing" textLength="290" x="61.5" y="238.495">Link(peer_node_id = 'ipn:42.0', peer_cla_addr = ...)</text><line style="stroke:#181818;stroke-width:1.0;" x1="640.5" x2="682.5" y1="276.01" y2="276.01"/><line style="stroke:#181818;stroke-width:1.0;" x1="682.5" x2="682.5" y1="276.01" y2="289.01"/><line style="stroke:#181818;stroke-width:1.0;" x1="641.5" x2="682.5" y1="289.01" y2="289.01"/><polygon fill="#181818" points="651.5,285.01,641.5,289.01,651.5,293.01,647.5,289.01" style="stroke:#181818;stroke-width:1.0;"/><text fill="#000000" font-family="sans-serif" font-size="13" lengthAdjust="spacing" textLength="136" x="647.5" y="270.201">invoke CLA connection</text><polygon fill="#181818" points="65.5,316.716,55.5,320.716,65.5,324.716,61.5,320.716" style="stroke:#181818;stroke-width:1.0;"/><line style="stroke:#181818;stroke-width:1.0;" x1="59.5" x2="639.5" y1="320.716" y2="320.716"/><text fill="#000000" font-family="sans-serif" font-size="13" lengthAdjust="spacing" textLength="24" x="71.5" y="314.907">ACK</text><polygon fill="#181818" points="628.5,348.4221,638.5,352.4221,628.5,356.4221,632.5,352.4221" style="stroke:#181818;stroke-width:1.0;"/><line style="stroke:#181818;stroke-width:1.0;" x1="169" x2="634.5" y1="352.4221" y2="352.4221"/><text fill="#000000" font-family="sans-serif" font-size="13" lengthAdjust="spacing" textLength="48" x="176" y="346.6131">connect</text><polygon fill="#181818" points="180,380.1281,170,384.1281,180,388.1281,176,384.1281" style="stroke:#181818;stroke-width:1.0;"/><line style="stroke:#181818;stroke-width:1.0;" x1="174" x2="639.5" y1="384.1281" y2="384.1281"/><text fill="#000000" font-family="sans-serif" font-size="13" lengthAdjust="spacing" textLength="169" x="186" y="378.3191">Welcome(node_id = 'ipn:1.0')</text><polygon fill="#181818" points="628.5,411.8341,638.5,415.8341,628.5,419.8341,632.5,415.8341" style="stroke:#181818;stroke-width:1.0;"/><line style="stroke:#181818;stroke-width:1.0;" x1="169" x2="634.5" y1="415.8341" y2="415.8341"/><text fill="#000000" font-family="sans-serif" font-size="13" lengthAdjust="spacing" textLength="444" x="176" y="410.0251">Configure(is_subscriber = true, auth_type = BUNDLE_DISPATCH, secret = ...)</text><line style="stroke:#181818;stroke-width:1.0;" x1="640.5" x2="682.5" y1="447.5401" y2="447.5401"/><line style="stroke:#181818;stroke-width:1.0;" x1="682.5" x2="682.5" y1="447.5401" y2="460.5401"/><line style="stroke:#181818;stroke-width:1.0;" x1="641.5" x2="682.5" y1="460.5401" y2="460.5401"/><polygon fill="#181818" points="651.5,456.5401,641.5,460.5401,651.5,464.5401,647.5,460.5401" style="stroke:#181818;stroke-width:1.0;"/><text fill="#000000" font-family="sans-serif" font-size="13" lengthAdjust="spacing" textLength="73" x="647.5" y="441.7311">check secret</text><polygon fill="#181818" points="180,488.2461,170,492.2461,180,496.2461,176,492.2461" style="stroke:#181818;stroke-width:1.0;"/><line style="stroke:#181818;stroke-width:1.0;" x1="174" x2="639.5" y1="492.2461" y2="492.2461"/><text fill="#000000" font-family="sans-serif" font-size="13" lengthAdjust="spacing" textLength="24" x="186" y="486.4371">ACK</text><polygon fill="#181818" points="180,519.9521,170,523.9521,180,527.9521,176,523.9521" style="stroke:#181818;stroke-width:1.0;"/><line style="stroke:#181818;stroke-width:1.0;" x1="174" x2="639.5" y1="523.9521" y2="523.9521"/><text fill="#000000" font-family="sans-serif" font-size="13" lengthAdjust="spacing" textLength="292" x="186" y="518.1431">Link(peer_node_id = 'ipn:42.0', status = ACTIVE, ...)</text><polygon fill="#181818" points="628.5,551.6582,638.5,555.6582,628.5,559.6582,632.5,555.6582" style="stroke:#181818;stroke-width:1.0;"/><line style="stroke:#181818;stroke-width:1.0;" x1="169" x2="634.5" y1="555.6582" y2="555.6582"/><text fill="#000000" font-family="sans-serif" font-size="13" lengthAdjust="spacing" textLength="24" x="176" y="549.8492">ACK</text><polygon fill="#181818" points="628.5,583.3642,638.5,587.3642,628.5,591.3642,632.5,587.3642" style="stroke:#181818;stroke-width:1.0;"/><line style="stroke:#181818;stroke-width:1.0;" x1="54.5" x2="634.5" y1="587.3642" y2="587.3642"/><text fill="#000000" font-family="sans-serif" font-size="13" lengthAdjust="spacing" textLength="562" x="61.5" y="581.5552">BundleADU(peer_eid = 'ud3tn:storage', payload = StorageCall(PUSH_BUNDLES, filter = 'ipn:4*'))</text><line style="stroke:#181818;stroke-width:1.0;" x1="640.5" x2="682.5" y1="619.0702" y2="619.0702"/><line style="stroke:#181818;stroke-width:1.0;" x1="682.5" x2="682.5" y1="619.0702" y2="632.0702"/><line style="stroke:#181818;stroke-width:1.0;" x1="641.5" x2="682.5" y1="632.0702" y2="632.0702"/><polygon fill="#181818" points="651.5,628.0702,641.5,632.0702,651.5,636.0702,647.5,632.0702" style="stroke:#181818;stroke-width:1.0;"/><text fill="#000000" font-family="sans-serif" font-size="13" lengthAdjust="spacing" textLength="173" x="647.5" y="613.2612">create bundle to storage CLA</text><polygon fill="#181818" points="65.5,659.7762,55.5,663.7762,65.5,667.7762,61.5,663.7762" style="stroke:#181818;stroke-width:1.0;"/><line style="stroke:#181818;stroke-width:1.0;" x1="59.5" x2="639.5" y1="663.7762" y2="663.7762"/><text fill="#000000" font-family="sans-serif" font-size="13" lengthAdjust="spacing" textLength="24" x="71.5" y="657.9672">ACK</text><polygon fill="#181818" points="906.5,691.4822,916.5,695.4822,906.5,699.4822,910.5,695.4822" style="stroke:#181818;stroke-width:1.0;"/><line style="stroke:#181818;stroke-width:1.0;" x1="640.5" x2="912.5" y1="695.4822" y2="695.4822"/><text fill="#000000" font-family="sans-serif" font-size="13" lengthAdjust="spacing" textLength="135" x="647.5" y="689.6732">Bundle(StorageCall(...))</text><line style="stroke:#181818;stroke-width:1.0;" x1="918.5" x2="960.5" y1="727.1882" y2="727.1882"/><line style="stroke:#181818;stroke-width:1.0;" x1="960.5" x2="960.5" y1="727.1882" y2="740.1882"/><line style="stroke:#181818;stroke-width:1.0;" x1="919.5" x2="960.5" y1="740.1882" y2="740.1882"/><polygon fill="#181818" points="929.5,736.1882,919.5,740.1882,929.5,744.1882,925.5,740.1882" style="stroke:#181818;stroke-width:1.0;"/><text fill="#000000" font-family="sans-serif" font-size="13" lengthAdjust="spacing" textLength="167" x="925.5" y="721.3792">load bundles matching filter</text><polygon fill="#181818" points="651.5,767.8943,641.5,771.8943,651.5,775.8943,647.5,771.8943" style="stroke:#181818;stroke-width:1.0;"/><line style="stroke:#181818;stroke-width:1.0;" x1="645.5" x2="917.5" y1="771.8943" y2="771.8943"/><text fill="#000000" font-family="sans-serif" font-size="13" lengthAdjust="spacing" textLength="143" x="657.5" y="766.0853">Bundle(to = 'ipn:42.0', ...)</text><polygon fill="#181818" points="651.5,799.6003,641.5,803.6003,651.5,807.6003,647.5,803.6003" style="stroke:#181818;stroke-width:1.0;"/><line style="stroke:#181818;stroke-width:1.0;" x1="645.5" x2="917.5" y1="803.6003" y2="803.6003"/><text fill="#000000" font-family="sans-serif" font-size="13" lengthAdjust="spacing" textLength="143" x="657.5" y="797.7913">Bundle(to = 'ipn:44.7', ...)</text><line style="stroke:#181818;stroke-width:1.0;" x1="640.5" x2="682.5" y1="835.3063" y2="835.3063"/><line style="stroke:#181818;stroke-width:1.0;" x1="682.5" x2="682.5" y1="835.3063" y2="848.3063"/><line style="stroke:#181818;stroke-width:1.0;" x1="641.5" x2="682.5" y1="848.3063" y2="848.3063"/><polygon fill="#181818" points="651.5,844.3063,641.5,848.3063,651.5,852.3063,647.5,848.3063" style="stroke:#181818;stroke-width:1.0;"/><text fill="#000000" font-family="sans-serif" font-size="13" lengthAdjust="spacing" textLength="156" x="647.5" y="829.4973">process incoming bundles</text><line style="stroke:#181818;stroke-width:1.0;" x1="640.5" x2="682.5" y1="880.0123" y2="880.0123"/><line style="stroke:#181818;stroke-width:1.0;" x1="682.5" x2="682.5" y1="880.0123" y2="893.0123"/><line style="stroke:#181818;stroke-width:1.0;" x1="641.5" x2="682.5" y1="893.0123" y2="893.0123"/><polygon fill="#181818" points="651.5,889.0123,641.5,893.0123,651.5,897.0123,647.5,893.0123" style="stroke:#181818;stroke-width:1.0;"/><text fill="#000000" font-family="sans-serif" font-size="13" lengthAdjust="spacing" textLength="264" x="647.5" y="874.2033">forward Bundle(to = 'ipn:42.0', ...) to 'ipn:42.0'</text><polygon fill="#181818" points="180,920.7183,170,924.7183,180,928.7183,176,924.7183" style="stroke:#181818;stroke-width:1.0;"/><line style="stroke:#181818;stroke-width:1.0;" x1="174" x2="639.5" y1="924.7183" y2="924.7183"/><text fill="#000000" font-family="sans-serif" font-size="13" lengthAdjust="spacing" textLength="173" x="186" y="918.9093">Bundle(dst_eid = 'ipn:44.7', ...)</text><polygon fill="#181818" points="628.5,952.4243,638.5,956.4243,628.5,960.4243,632.5,956.4243" style="stroke:#181818;stroke-width:1.0;"/><line style="stroke:#181818;stroke-width:1.0;" x1="169" x2="634.5" y1="956.4243" y2="956.4243"/><text fill="#000000" font-family="sans-serif" font-size="13" lengthAdjust="spacing" textLength="244" x="176" y="950.6153">Dispatch(next_hop_node_id = ['ipn:42.0'])</text><line style="stroke:#181818;stroke-width:1.0;" x1="640.5" x2="682.5" y1="988.1304" y2="988.1304"/><line style="stroke:#181818;stroke-width:1.0;" x1="682.5" x2="682.5" y1="988.1304" y2="1001.1304"/><line style="stroke:#181818;stroke-width:1.0;" x1="641.5" x2="682.5" y1="1001.1304" y2="1001.1304"/><polygon fill="#181818" points="651.5,997.1304,641.5,1001.1304,651.5,1005.1304,647.5,1001.1304" style="stroke:#181818;stroke-width:1.0;"/><text fill="#000000" font-family="sans-serif" font-size="13" lengthAdjust="spacing" textLength="264" x="647.5" y="982.3214">forward Bundle(to = 'ipn:44.7', ...) to 'ipn:42.0'</text><!--SRC=[dPFRRjim38Rl_HIwYpsunhOM612W0noxGuDbQR4axKKn28hC949SIP3aRNtxoQVwi2hjTkcVDFdn9oM9CemoIRX1i_GRfe8R9N9FZlICQKaCFGm2HNg-NWwKbH6AxC7pUhNGsUSwSugime4Qh_eizLxQ5Dr3JiKZ-5naW5c6Bj64IJxz4BsV18w2YU0xjYyK-4nZNMmrLMmBolww8xc649727B1vac2bB_CPJcwMw-ytYn1fe0gCLQCe2ZgW5lG0zDZaE6ZZvAi3Qi7uqPS02eyckVXeHmbH5Q8vmIJBb8k0yP_Y22XPnArhJF0JA5v_IwzPtkQzmVCNIhfDDweOUJxRBDF55KxdgzjudLp_l-yTSZMj8_QQzTeGKsWhnibwVdSLrXIEETqRdXKyoo5EDtKlgFiKsRdXKrq_WNBFv2aNf0mrpo8XUUxVRbRNkBPb5Q8ToqrbNKtvRXAyO8e2OW1jgwR82DIqA8_Zn4KyHvhkBRRVfodd3xn66IHNw7LFZHvBQnZVDxpz7mQM-9Pkw7Xby5lIBw9FRVhO0Aa41Qtjcx2tMb8qM7ybxeJwHLHs4gOqiDDSXzHKoBHfjpk6T1nDsaW-Xzy67uJiNU93r_T7y0_mNTSH_1y0]--></g></svg>